<?xml version="1.0" encoding="UTF-8"?>
<svg version="1.1" xmlns="http://www.w3.org/2000/svg" width="299" height="45">
<path d="M0 0 C2.475 0.495 2.475 0.495 5 1 C4.67 5.29 4.34 9.58 4 14 C6.475 14.495 6.475 14.495 9 15 C9.03738281 14.33613281 9.07476563 13.67226563 9.11328125 12.98828125 C9.4899103 7.92963621 9.81205295 4.15819181 13 0 C15.475 0.495 15.475 0.495 18 1 C17.67 5.29 17.34 9.58 17 14 C19.475 14.495 19.475 14.495 22 15 C19.80896951 20.37798393 15.35688618 24.52743612 10.2890625 27.2734375 C4.09110181 29.2407083 -3.31758012 29.15831767 -9.265625 26.58984375 C-14.12426126 23.76489381 -17.45678702 21.08642596 -20 16 C-20 15.34 -20 14.68 -20 14 C-19.11248047 14.14308594 -19.11248047 14.14308594 -18.20703125 14.2890625 C-11.80529381 15.32957802 -11.80529381 15.32957802 -6 13 C-4.2241456 9.68994963 -4.2241456 9.68994963 -3 6 C-1.07142857 1.07142857 -1.07142857 1.07142857 0 0 Z " fill="#FAA627" transform="translate(20,17)"/>
<path d="M0 0 C0.66 0.66 1.32 1.32 2 2 C2.53625 1.484375 3.0725 0.96875 3.625 0.4375 C6 -1 6 -1 9.0625 -0.9375 C12.51416533 0.16409532 13.24932377 0.8876867 15 4 C15.109375 6.83984375 15.109375 6.83984375 14.75 9.9375 C14.64171875 10.95714844 14.5334375 11.97679687 14.421875 13.02734375 C14.04077663 15.71267576 13.56648385 18.34826957 13 21 C10.36 21 7.72 21 5 21 C5.33 16.38 5.66 11.76 6 7 C5.01 7 4.02 7 3 7 C2.01 11.62 1.02 16.24 0 21 C-2.64 21 -5.28 21 -8 21 C-7.67 16.38 -7.34 11.76 -7 7 C-7.99 7 -8.98 7 -10 7 C-10.99 11.62 -11.98 16.24 -13 21 C-15.64 21 -18.28 21 -21 21 C-20.01 14.07 -19.02 7.14 -18 0 C-15.03 0 -12.06 0 -9 0 C-5.88135455 -1.55932272 -3.33704665 -0.65549131 0 0 Z " fill="#00529B" transform="translate(180,12)"/>
<path d="M0 0 C2.0430676 1.21639285 3.75334095 2.50103338 5.52734375 4.08203125 C6.12546875 4.60925781 6.72359375 5.13648438 7.33984375 5.6796875 C9.02734375 7.26953125 9.02734375 7.26953125 11.52734375 10.08203125 C11.52734375 10.74203125 11.52734375 11.40203125 11.52734375 12.08203125 C7.07234375 12.57703125 7.07234375 12.57703125 2.52734375 13.08203125 C2.52734375 13.74203125 2.52734375 14.40203125 2.52734375 15.08203125 C1.94984375 14.77265625 1.37234375 14.46328125 0.77734375 14.14453125 C-2.23512245 12.70130761 -2.23512245 12.70130761 -5.47265625 12.08203125 C-8.27110006 13.48125315 -10.26057008 14.86994508 -12.47265625 17.08203125 C-12.47265625 15.76203125 -12.47265625 14.44203125 -12.47265625 13.08203125 C-14.94765625 12.58703125 -14.94765625 12.58703125 -17.47265625 12.08203125 C-17.52164062 12.74589844 -17.570625 13.40976563 -17.62109375 14.09375 C-18.36369316 22.86410506 -18.36369316 22.86410506 -20.47265625 27.08203125 C-22.1387753 27.12475225 -23.8064851 27.12266957 -25.47265625 27.08203125 C-25.80265625 26.75203125 -26.13265625 26.42203125 -26.47265625 26.08203125 C-26.38247629 23.89153104 -26.22599417 21.70356525 -26.03515625 19.51953125 C-25.93332031 18.32199219 -25.83148437 17.12445312 -25.7265625 15.890625 C-25.64277344 14.96378906 -25.55898438 14.03695313 -25.47265625 13.08203125 C-27.12265625 12.75203125 -28.77265625 12.42203125 -30.47265625 12.08203125 C-28.28473966 6.71169053 -23.83190949 2.53358342 -18.75390625 -0.18359375 C-12.85865583 -2.08137985 -5.8186305 -2.16015508 0 0 Z " fill="#EE3B33" transform="translate(30.47265625,0.91796875)"/>
<path d="M0 0 C2.05078125 0.03255208 4.1015625 0.06510417 6.15234375 0.09765625 C5.82234375 2.07765625 5.49234375 4.05765625 5.15234375 6.09765625 C6.14234375 6.09765625 7.13234375 6.09765625 8.15234375 6.09765625 C8.15234375 8.07765625 8.15234375 10.05765625 8.15234375 12.09765625 C6.83234375 12.09765625 5.51234375 12.09765625 4.15234375 12.09765625 C3.49234375 17.04765625 2.83234375 21.99765625 2.15234375 27.09765625 C-0.81765625 27.09765625 -3.78765625 27.09765625 -6.84765625 27.09765625 C-6.18765625 22.47765625 -5.52765625 17.85765625 -4.84765625 13.09765625 C-8.2072025 12.99959818 -8.2072025 12.99959818 -12.84765625 14.09765625 C-13.83765625 18.38765625 -14.82765625 22.67765625 -15.84765625 27.09765625 C-18.48765625 27.09765625 -21.12765625 27.09765625 -23.84765625 27.09765625 C-24.15381595 20.36214286 -23.89593372 12.19421119 -20.84765625 6.09765625 C-19.96013672 6.11505859 -19.96013672 6.11505859 -19.0546875 6.1328125 C-14.79805083 6.1814201 -11.02681054 5.93348711 -6.84765625 5.09765625 C-4.53515625 5.53515625 -4.53515625 5.53515625 -2.84765625 6.09765625 C-2.86828125 5.29328125 -2.88890625 4.48890625 -2.91015625 3.66015625 C-2.82452531 0.14928781 -2.82452531 0.14928781 0 0 Z " fill="#00529B" transform="translate(247.84765625,5.90234375)"/>
<path d="M0 0 C2.64 0 5.28 0 8 0 C7.67 3.96 7.34 7.92 7 12 C7.99 11.34 8.98 10.68 10 10 C13.01440049 10.18840003 15.23740157 10.56786089 17.875 12.0625 C21.17930437 17.75324641 18.37759797 25.99760887 17 32 C14.36 32 11.72 32 9 32 C9.33 27.38 9.66 22.76 10 18 C8.68 18.33 7.36 18.66 6 19 C5.01 23.29 4.02 27.58 3 32 C0.36 32 -2.28 32 -5 32 C-3.78254331 21.22908903 -2.12034881 10.63001537 0 0 Z " fill="#00529B" transform="translate(99,1)"/>
<path d="M0 0 C0.66 0 1.32 0 2 0 C4.64 0 7.28 0 10 0 C9.01 6.93 8.02 13.86 7 21 C3.7 21 0.4 21 -3 21 C-4.11375 21.20625 -5.2275 21.4125 -6.375 21.625 C-9 22 -9 22 -11.1875 21.4375 C-13.93169315 19.26107095 -14.83883007 17.30016717 -16 14 C-16.21804602 9.7145571 -15.4790358 6.75984988 -13.1875 3.125 C-8.65220853 -1.28071171 -6.21987865 -1.15182938 0 0 Z M-5 6 C-7.34973818 7.89755144 -7.34973818 7.89755144 -7.125 11.125 C-7.08375 12.07375 -7.0425 13.0225 -7 14 C-4.65466049 14.76956136 -4.65466049 14.76956136 -2 15 C0 14 0 14 1 12 C0.76956136 9.34533951 0.76956136 9.34533951 0 7 C-2.39719432 6.32041397 -2.39719432 6.32041397 -5 6 Z " fill="#00529B" transform="translate(136,12)"/>
<path d="M0 0 C0.66 0 1.32 0 2 0 C4.66666667 0 7.33333333 0 10 0 C9.52753292 3.3134921 9.04590875 6.62558794 8.5625 9.9375 C8.42779297 10.88302734 8.29308594 11.82855469 8.15429688 12.80273438 C8.02216797 13.70185547 7.89003906 14.60097656 7.75390625 15.52734375 C7.63345947 16.35999756 7.5130127 17.19265137 7.38891602 18.05053711 C7 20 7 20 6 21 C3.66705225 21.04241723 1.33297433 21.04092937 -1 21 C-3.15875178 20.92084897 -3.15875178 20.92084897 -5.8125 21.6875 C-9.69305692 22.06794676 -10.99847704 21.4178935 -14 19 C-16.33440971 15.24741648 -16.19765531 12.52444718 -15.61328125 8.2578125 C-14.59804099 4.5201764 -12.79256672 2.65958735 -10 0 C-6.29263464 -1.23578845 -3.81772071 -0.62471794 0 0 Z M-6.8125 7.75 C-8.23504687 9.91483564 -8.23504687 9.91483564 -7.6875 12.25 C-7.460625 12.8275 -7.23375 13.405 -7 14 C-5.35 14.33 -3.7 14.66 -2 15 C-0.26352052 13.32511472 -0.26352052 13.32511472 1 11 C0.29042763 8.26601865 0.29042763 8.26601865 -1 6 C-4.94030828 5.53693699 -4.94030828 5.53693699 -6.8125 7.75 Z " fill="#00529B" transform="translate(213,12)"/>
<path d="M0 0 C3.08088442 4.62132663 2.48549725 9.22513211 1.546875 14.58984375 C1.07144552 16.73946417 0.5634641 18.87191683 0 21 C-2.64 21 -5.28 21 -8 21 C-7.67 16.38 -7.34 11.76 -7 7 C-8.32 7.33 -9.64 7.66 -11 8 C-11.13277344 8.85464844 -11.26554687 9.70929687 -11.40234375 10.58984375 C-11.66724609 12.24693359 -11.66724609 12.24693359 -11.9375 13.9375 C-12.11152344 15.03964844 -12.28554688 16.14179688 -12.46484375 17.27734375 C-13 20 -13 20 -14 21 C-16.64 21 -19.28 21 -22 21 C-21.01 14.07 -20.02 7.14 -19 0 C-15.66666667 0 -12.33333333 0 -9 0 C-5.85135005 -1.57432497 -3.35512575 -0.71895552 0 0 Z " fill="#00519A" transform="translate(289,12)"/>
<path d="M0 0 C2.64 0 5.28 0 8 0 C7.67 4.95 7.34 9.9 7 15 C8.32 15 9.64 15 11 15 C11.13277344 14.00097656 11.26554687 13.00195312 11.40234375 11.97265625 C11.57894531 10.68230469 11.75554687 9.39195313 11.9375 8.0625 C12.11152344 6.77472656 12.28554687 5.48695312 12.46484375 4.16015625 C13 1 13 1 14 0 C16.67058851 -0.14115161 19.32432238 -0.04247107 22 0 C21.74340689 2.23085067 21.46912686 4.45967123 21.1875 6.6875 C21.03667969 7.92886719 20.88585937 9.17023437 20.73046875 10.44921875 C19.73440487 15.29104799 18.37790088 18.03867381 14.3125 20.875 C10.14906062 22.28899828 7.17653604 22.3607976 3 21 C-0.0625 19.0625 -0.0625 19.0625 -2 16 C-2.16601846 12.56513523 -1.63919548 9.36786188 -1 6 C-0.814375 4.80375 -0.62875 3.6075 -0.4375 2.375 C-0.293125 1.59125 -0.14875 0.8075 0 0 Z " fill="#00529B" transform="translate(53,12)"/>
<path d="M0 0 C0.66 0.33 1.32 0.66 2 1 C1.625 3.4375 1.625 3.4375 1 6 C-1 7 -1 7 -4.125 6.0625 C-5.07375 5.711875 -6.0225 5.36125 -7 5 C-7 5.66 -7 6.32 -7 7 C-6.2575 7.0825 -5.515 7.165 -4.75 7.25 C-1.38671849 8.16725859 -0.08316314 9.22244915 2 12 C2.65038793 15.25193963 2.3401577 16.48976345 0.5 19.25 C-2.85257732 21.59680412 -5.99217941 22.09666358 -10 22 C-12.46506309 21.53112736 -14.62288264 20.84189573 -17 20 C-16.34 18.02 -15.68 16.04 -15 14 C-12.36 14.33 -9.72 14.66 -7 15 C-7.5775 14.5875 -8.155 14.175 -8.75 13.75 C-13.15384615 10.32478632 -13.15384615 10.32478632 -15 8 C-14.92811346 5.05265186 -14.44394312 3.56501851 -12.625 1.25 C-8.50313897 -1.92066233 -4.78363267 -0.75930677 0 0 Z " fill="#00529B" transform="translate(91,12)"/>
<path d="M0 0 C3.15047557 1.33200254 4.37143136 3.49840128 6.3125 6.2734375 C7.35470703 7.73910156 7.35470703 7.73910156 8.41796875 9.234375 C10.125 11.8984375 10.125 11.8984375 11.125 14.8984375 C-2.79280273 15.45597559 -2.79280273 15.45597559 -7.875 11.8984375 C-8.761875 11.2796875 -9.64875 10.6609375 -10.5625 10.0234375 C-12.97074094 7.81045934 -14.41666205 5.81511339 -15.875 2.8984375 C-15.875 2.2384375 -15.875 1.5784375 -15.875 0.8984375 C-14.98748047 1.04152344 -14.98748047 1.04152344 -14.08203125 1.1875 C-8.72900835 1.93849506 -4.84908065 -0.26265854 0 0 Z " fill="#FCB521" transform="translate(15.875,30.1015625)"/>
<path d="M0 0 C2.64 0 5.28 0 8 0 C7.53752467 7.19270839 6.74922933 14.0030827 5 21 C2.36 21 -0.28 21 -3 21 C-2.48462048 13.86606248 -1.55994099 6.98187183 0 0 Z " fill="#00529B" transform="translate(258,12)"/>
<path d="M0 0 C1.65 0.33 3.3 0.66 5 1 C4.67 5.29 4.34 9.58 4 14 C5.65 14.33 7.3 14.66 9 15 C7.55746343 18.36591866 5.66735273 20.51047079 3 23 C2.401875 22.236875 1.80375 21.47375 1.1875 20.6875 C-0.7801176 18.09247112 -0.7801176 18.09247112 -2.64453125 16.63671875 C-4 15 -4 15 -4.1796875 12.6953125 C-3.59946816 7.80064165 -3.09042196 4.03098517 0 0 Z " fill="#F37431" transform="translate(33,17)"/>
<path d="M0 0 C6.625 -0.125 6.625 -0.125 10 1 C10.33 1.66 10.66 2.32 11 3 C13.34907875 3.68931344 13.34907875 3.68931344 16.0625 4.125 C16.98160156 4.29257812 17.90070312 4.46015625 18.84765625 4.6328125 C19.91306641 4.81457031 19.91306641 4.81457031 21 5 C21.33 5.99 21.66 6.98 22 8 C10.16808169 8.56843736 10.16808169 8.56843736 5 5 C2.125 2.3125 2.125 2.3125 0 0 Z " fill="#FFD909" transform="translate(3,37)"/>
<path d="M0 0 C1.65 0.33 3.3 0.66 5 1 C4.67 5.29 4.34 9.58 4 14 C3.01 14 2.02 14 1 14 C0.34 12.35 -0.32 10.7 -1 9 C-1.66 9 -2.32 9 -3 9 C-2.25 2.25 -2.25 2.25 0 0 Z " fill="#F47E30" transform="translate(20,17)"/>
<path d="M0 0 C2.625 0.375 2.625 0.375 5 1 C5.125 7.75 5.125 7.75 4 10 C1.69 9.67 -0.62 9.34 -3 9 C-2.25 2.25 -2.25 2.25 0 0 Z " fill="#EE3C33" transform="translate(33,17)"/>
<path d="M0 0 C13.16869919 2.77235772 13.16869919 2.77235772 17 7 C17.33 7.99 17.66 8.98 18 10 C15.525 9.505 15.525 9.505 13 9 C13 8.34 13 7.68 13 7 C12.31292969 6.97421875 11.62585937 6.9484375 10.91796875 6.921875 C10.01691406 6.86515625 9.11585937 6.8084375 8.1875 6.75 C6.84751953 6.68039063 6.84751953 6.68039063 5.48046875 6.609375 C3 6 3 6 1.17578125 4.078125 C0 2 0 2 0 0 Z " fill="#FEC419" transform="translate(0,31)"/>
<path d="M0 0 C0.04241723 2.33294775 0.04092937 4.66702567 0 7 C-1 8 -1 8 -3.9375 8.1875 C-7 8 -7 8 -9 6 C-8.75 2.9375 -8.75 2.9375 -8 0 C-5.13822943 -1.43088528 -3.06624227 -0.59991697 0 0 Z M-7 2 C-6 5 -6 5 -6 5 Z M-2 2 C-1 5 -1 5 -1 5 Z " fill="#040707" transform="translate(299,3)"/>
<path d="M0 0 C4.55555556 0.55555556 4.55555556 0.55555556 6 2 C6.1875 4.4375 6.1875 4.4375 6 7 C5.34 7.66 4.68 8.32 4 9 C-0.55555556 8.44444444 -0.55555556 8.44444444 -2 7 C-2.1875 4.5625 -2.1875 4.5625 -2 2 C-1.34 1.34 -0.68 0.68 0 0 Z " fill="#00529B" transform="translate(261,2)"/>
<path d="M0 0 C2.49361571 1.20381448 4.68143083 2.45428722 7 4 C6.34 5.65 5.68 7.3 5 9 C3.33388095 9.042721 1.66617115 9.04063832 0 9 C-1 8 -1 8 -1.125 4.5 C-1 1 -1 1 0 0 Z " fill="#F48130" transform="translate(5,19)"/>
<path d="M0 0 C2.4164124 0.48328248 4.65832183 1.21944061 7 2 C6.67 4.31 6.34 6.62 6 9 C3.03824877 8.38722388 1.61941217 7.74627478 -1 6 C-1.25 3.4375 -1.25 3.4375 -1 1 C-0.67 0.67 -0.34 0.34 0 0 Z " fill="#F05333" transform="translate(6,13)"/>
<path d="M0 0 C4.20969919 1.50346399 5.91860139 4.14555814 8 8 C7.75 10.375 7.75 10.375 7 12 C5.33333333 10.33333333 3.66666667 8.66666667 2 7 C1.38125 6.484375 0.7625 5.96875 0.125 5.4375 C-0.24625 4.963125 -0.6175 4.48875 -1 4 C-0.6875 1.8125 -0.6875 1.8125 0 0 Z " fill="#F5882F" transform="translate(30,28)"/>
<path d="M0 0 C2.25 0.0625 2.25 0.0625 5 1 C6.67849824 3.2308475 7.75999263 5.47405906 9 8 C8.01 8.66 7.02 9.32 6 10 C4.99421411 8.71283353 3.99553202 7.42011342 3 6.125 C2.443125 5.40570313 1.88625 4.68640625 1.3125 3.9453125 C0 2 0 2 0 0 Z " fill="#F89B2B" transform="translate(27,32)"/>
<path d="M0 0 C1.65 0.33 3.3 0.66 5 1 C5 2.65 5 4.3 5 6 C2.61435923 5.42415568 0.33317216 4.77772405 -2 4 C-1.34 2.68 -0.68 1.36 0 0 Z " fill="#EF4D33" transform="translate(20,17)"/>
<path d="M0 0 C2.875 -0.125 2.875 -0.125 6 0 C6.66 0.66 7.32 1.32 8 2 C7.67 2.66 7.34 3.32 7 4 C4.69 3.67 2.38 3.34 0 3 C0 2.01 0 1.02 0 0 Z " fill="#F05333" transform="translate(30,23)"/>
<path d="M0 0 C2.38564077 0.57584432 4.66682784 1.22227595 7 2 C6.67 3.65 6.34 5.3 6 7 C3.95880212 5.38405168 1.95927063 3.7143618 0 2 C0 1.34 0 0.68 0 0 Z " fill="#F26932" transform="translate(18,21)"/>
<path d="M0 0 C2.97 0.495 2.97 0.495 6 1 C6.33 2.32 6.66 3.64 7 5 C4.03824877 4.38722388 2.61941217 3.74627478 0 2 C0 1.34 0 0.68 0 0 Z " fill="#F26A32" transform="translate(5,17)"/>
<path d="M0 0 C1.32 1.65 2.64 3.3 4 5 C2.68 5.33 1.36 5.66 0 6 C-0.38218767 4.34385343 -0.71395102 2.67542976 -1 1 C-0.67 0.67 -0.34 0.34 0 0 Z " fill="#F7932D" transform="translate(5,22)"/>
</svg>
